<?xml version="1.0" encoding="UTF-8"?>
<svg version="1.1" xmlns="http://www.w3.org/2000/svg" width="512" height="512">
<path d="M0 0 C1.01790619 0.00215515 2.03581238 0.0043103 3.08456421 0.00653076 C17.69363523 0.05620146 32.02575853 0.30709809 46.375 3.3125 C47.34985352 3.51117676 48.32470703 3.70985352 49.32910156 3.91455078 C88.38660539 12.08468046 124.82400319 27.71035417 156.375 52.3125 C157.25929688 52.98539063 158.14359375 53.65828125 159.0546875 54.3515625 C174.64487101 66.4551235 189.25704477 80.75418497 201.375 96.3125 C202.52162109 97.71628906 202.52162109 97.71628906 203.69140625 99.1484375 C238.32002637 142.39252491 256.81365997 197.89189907 256.69067383 253.03979492 C256.6875221 255.97938487 256.71104926 258.9179558 256.73632812 261.85742188 C256.78098737 275.23056192 255.57551542 288.12666711 253.375 301.3125 C253.09281616 303.01805054 253.09281616 303.01805054 252.80493164 304.75805664 C245.77946967 343.86954746 228.79665906 381.05202178 204.375 412.3125 C203.61574219 413.28445313 202.85648437 414.25640625 202.07421875 415.2578125 C189.73986402 430.63741644 175.93895499 445.19015196 160.375 457.3125 C159.43914062 458.07691406 158.50328125 458.84132813 157.5390625 459.62890625 C125.58628299 485.2157721 86.41988322 501.72551276 46.375 509.3125 C45.56562988 509.47621094 44.75625977 509.63992188 43.92236328 509.80859375 C13.88110013 515.67977137 -20.7615176 514.58512909 -50.625 508.3125 C-52.14794678 507.99901611 -52.14794678 507.99901611 -53.70166016 507.67919922 C-90.84546555 499.78695344 -125.70945445 483.68345578 -155.625 460.3125 C-156.59695312 459.55324219 -157.56890625 458.79398437 -158.5703125 458.01171875 C-173.94991644 445.67736402 -188.50265196 431.87645499 -200.625 416.3125 C-201.77162109 414.90871094 -201.77162109 414.90871094 -202.94140625 413.4765625 C-228.5282721 381.52378299 -245.03801276 342.35738322 -252.625 302.3125 C-252.78871094 301.50312988 -252.95242187 300.69375977 -253.12109375 299.85986328 C-258.59069558 271.87335724 -258.46977511 238.21828161 -252.625 210.3125 C-252.42632324 209.33764648 -252.22764648 208.36279297 -252.02294922 207.35839844 C-241.93598313 159.13741149 -219.89911449 114.53770064 -185.40722656 79.14160156 C-183.63301167 77.32072238 -181.87518486 75.48496071 -180.1171875 73.6484375 C-173.01832106 66.31138736 -165.60682072 59.74213624 -157.41796875 53.64794922 C-155.58092428 52.27967127 -153.75911069 50.89264471 -151.9375 49.50390625 C-143.51077324 43.13790222 -134.81596417 37.50688619 -125.625 32.3125 C-124.99464844 31.94946777 -124.36429688 31.58643555 -123.71484375 31.21240234 C-85.96656579 9.60246645 -43.19754839 -0.16448837 0 0 Z M-130.625 65.3125 C-131.58921875 66.00601563 -132.5534375 66.69953125 -133.546875 67.4140625 C-141.2116371 73.03356425 -148.43255459 79.11113959 -155.625 85.3125 C-156.78902344 86.28896484 -156.78902344 86.28896484 -157.9765625 87.28515625 C-161.95358259 90.65564239 -165.44088282 94.20523795 -168.8046875 98.1875 C-170.02592463 99.61315021 -171.282291 101.00938685 -172.5703125 102.375 C-186.00121025 116.6484264 -196.50444974 133.0360091 -205.625 150.3125 C-206.03588867 151.0849707 -206.44677734 151.85744141 -206.87011719 152.65332031 C-223.52771971 184.44421054 -231.08353472 219.93549854 -231 255.625 C-230.99868576 257.00387894 -230.99868576 257.00387894 -230.99734497 258.41061401 C-230.92026101 283.03720556 -227.16238705 305.82140576 -219.625 329.3125 C-219.38555664 330.05999512 -219.14611328 330.80749023 -218.89941406 331.57763672 C-208.88147345 362.00222414 -191.36904215 388.25319997 -170.625 412.3125 C-169.64853516 413.47652344 -169.64853516 413.47652344 -168.65234375 414.6640625 C-165.28185761 418.64108259 -161.73226205 422.12838282 -157.75 425.4921875 C-156.32434979 426.71342463 -154.92811315 427.969791 -153.5625 429.2578125 C-139.2890736 442.68871025 -122.9014909 453.19194974 -105.625 462.3125 C-104.8525293 462.72338867 -104.08005859 463.13427734 -103.28417969 463.55761719 C-78.01967374 476.7955635 -49.0689439 485.05545125 -20.625 487.3125 C-19.40586914 487.41304688 -19.40586914 487.41304688 -18.16210938 487.515625 C44.13986549 492.29747399 104.48462676 471.72555399 151.7890625 431.26416016 C153.31842696 429.94777454 154.84674263 428.63017073 156.375 427.3125 C157.15101563 426.66152344 157.92703125 426.01054687 158.7265625 425.33984375 C162.70358259 421.96935761 166.19088282 418.41976205 169.5546875 414.4375 C170.77592463 413.01184979 172.032291 411.61561315 173.3203125 410.25 C186.75121025 395.9765736 197.25444974 379.5889909 206.375 362.3125 C206.78588867 361.5400293 207.19677734 360.76755859 207.62011719 359.97167969 C224.27771971 328.18078946 231.83353472 292.68950146 231.75 257 C231.74912384 256.08074738 231.74824768 255.16149475 231.74734497 254.21438599 C231.67026101 229.58779444 227.91238705 206.80359424 220.375 183.3125 C220.13555664 182.56500488 219.89611328 181.81750977 219.64941406 181.04736328 C209.63147345 150.62277586 192.11904215 124.37180003 171.375 100.3125 C170.72402344 99.53648438 170.07304687 98.76046875 169.40234375 97.9609375 C166.03185761 93.98391741 162.48226205 90.49661718 158.5 87.1328125 C157.07434979 85.91157537 155.67811315 84.655209 154.3125 83.3671875 C140.63729964 70.49920383 124.93364968 60.07337402 108.375 51.3125 C107.56901367 50.88485352 106.76302734 50.45720703 105.93261719 50.01660156 C79.92770188 36.44390574 50.66935311 27.63702937 21.375 25.3125 C20.56224609 25.24546875 19.74949219 25.1784375 18.91210938 25.109375 C-32.78238444 21.14167953 -88.41619184 34.3509491 -130.625 65.3125 Z " fill="#e587a8" transform="translate(255.625,-0.3125)"/>
<path d="M0 0 C1.54068913 -0.00679667 1.54068913 -0.00679667 3.11250329 -0.01373065 C6.55309566 -0.02638746 9.99353 -0.02475342 13.43414307 -0.02310181 C15.90153202 -0.02908628 18.3689191 -0.03589163 20.83630371 -0.04345703 C26.84268792 -0.05929716 32.84901004 -0.06556583 38.85540935 -0.06668179 C43.73981643 -0.06763315 48.62421059 -0.07174787 53.50861359 -0.07808304 C67.36757178 -0.09569158 81.22649904 -0.10492263 95.0854685 -0.10342209 C95.83217173 -0.10334218 96.57887496 -0.10326227 97.34820557 -0.10317993 C98.46963378 -0.10305729 98.46963378 -0.10305729 99.61371711 -0.10293217 C111.72490407 -0.10211959 123.83596657 -0.1212512 135.94711754 -0.14945666 C148.39332122 -0.17821285 160.83946426 -0.19199543 173.28570199 -0.19026911 C180.26905083 -0.18960611 187.25226922 -0.19505886 194.23558807 -0.21662521 C200.80525442 -0.23678457 207.37469281 -0.23613537 213.94438934 -0.22159195 C216.35258385 -0.21950206 218.76079555 -0.22421537 221.16896057 -0.23631287 C224.46289747 -0.25178532 227.75588767 -0.24244297 231.04980469 -0.22705078 C231.99710253 -0.23733791 232.94440036 -0.24762503 233.9204042 -0.25822389 C243.47946541 -0.15988185 251.15899702 2.90938093 258.09136963 9.47836304 C264.14940933 15.90100698 266.0245565 22.56490402 266.03956604 31.27471924 C266.04339159 31.94405271 266.04721713 32.61338618 266.05115861 33.30300248 C266.06140705 35.5267397 266.05751216 37.75021476 266.05352783 39.97396851 C266.05787885 41.57614377 266.0630633 43.17831695 266.0690155 44.78048706 C266.08237525 49.119405 266.08298751 53.45823567 266.0804522 57.79717016 C266.07938037 61.42525941 266.08427132 65.05333115 266.08905762 68.68141663 C266.10014249 77.24411658 266.10059605 85.80677267 266.09454346 94.36947632 C266.08850468 103.18941966 266.10081457 112.00920344 266.12211353 120.82911956 C266.13975357 128.41406228 266.14572707 135.99895432 266.14247578 143.58391678 C266.14066651 148.10854885 266.14326343 152.6330671 266.15719032 157.15768051 C266.1698031 161.41442865 266.16779209 165.67092883 266.15477943 169.92767334 C266.15242155 171.48485525 266.15511996 173.0420548 266.16340256 174.59921646 C266.22612135 187.31294294 265.16962964 195.68025217 256.19293213 205.09555054 C250.78001982 209.96541986 244.64013594 212.3845264 237.37903404 212.40164661 C236.05961471 212.40833338 236.05961471 212.40833338 234.71354043 212.41515523 C233.75149403 212.41497087 232.78944762 212.41478651 231.79824829 212.41459656 C230.77283105 212.41827325 229.74741382 212.42194993 228.69092333 212.42573804 C225.24415951 212.43677856 221.79742583 212.44061936 218.35064697 212.44442749 C215.88355412 212.45069187 213.41646221 212.45733864 210.94937134 212.46434021 C203.53824632 212.48356895 196.1271293 212.49416874 188.71598667 212.503068 C185.22361693 212.50745393 181.7312487 212.51281996 178.23888016 212.51805687 C166.62535861 212.53506764 155.01183799 212.54956092 143.39830589 212.55680561 C140.38567478 212.55871542 137.37304368 212.56063577 134.3604126 212.56259155 C133.23728788 212.56331716 133.23728788 212.56331716 132.09147377 212.56405743 C119.9672328 212.57235447 107.8430906 212.59768651 95.71889274 212.63017223 C83.26371916 212.66327195 70.80859572 212.68125701 58.35337794 212.68444985 C51.36328354 212.68661229 44.37333316 212.6953218 37.38328171 212.72091103 C30.80544634 212.74493597 24.22782314 212.74842544 17.64993668 212.73814964 C15.23851409 212.73765413 12.82707876 212.74397892 10.41569519 212.75770569 C7.11728514 212.775428 3.81980403 212.76831587 0.52139282 212.75517273 C-0.42726925 212.76614198 -1.37593133 212.77711122 -2.35334074 212.78841287 C-11.8576333 212.69731601 -19.61836786 209.65168533 -26.53363037 203.12680054 C-32.17253897 196.91355865 -34.46519382 189.68779625 -34.48855591 181.38711548 C-34.49308702 180.719342 -34.49761813 180.05156852 -34.50228655 179.36355948 C-34.51488734 177.13906049 -34.51331301 174.9148077 -34.51165771 172.6902771 C-34.51764575 171.08987109 -34.52445193 169.48946796 -34.53201294 167.8890686 C-34.54965399 163.55003236 -34.55436757 159.21107505 -34.55564451 154.87200642 C-34.55706795 152.15789537 -34.56134125 149.44380427 -34.56663895 146.72969818 C-34.58513425 137.25170116 -34.59331035 127.77376032 -34.59173584 118.29574585 C-34.59053517 109.47637124 -34.61162415 100.65724165 -34.64322317 91.83792901 C-34.66942307 84.25383873 -34.68010155 76.66982828 -34.67882502 69.08569312 C-34.6783164 64.5615297 -34.68394392 60.03758402 -34.70518112 55.51346588 C-34.72462577 51.255034 -34.72464575 46.99702613 -34.71014786 42.7385788 C-34.70806622 41.1818123 -34.71272194 39.62501884 -34.72486877 38.06829834 C-34.81148122 26.19233417 -33.45971374 16.83545406 -25.08050537 7.95492554 C-17.71124566 1.2668579 -9.58317199 -0.03103994 0 0 Z M15.77886963 25.26742554 C19.80145062 29.32988604 19.80145062 29.32988604 24.05621338 32.99398804 C24.64458984 33.46248169 25.23296631 33.93097534 25.83917236 34.41366577 C26.45864746 34.90165649 27.07812256 35.38964722 27.71636963 35.89242554 C28.37387207 36.41457642 29.03137451 36.93672729 29.70880127 37.47470093 C34.60053051 41.35422706 39.51694171 45.2023892 44.43463135 49.04891968 C48.94782712 52.5890406 53.39937311 56.20105102 57.84136963 59.82992554 C63.62747763 64.55585676 69.49373788 69.14410727 75.43511963 73.67367554 C79.97265354 77.16408624 84.38490291 80.80909074 88.81549072 84.43344116 C94.1017903 88.74638628 99.47604464 92.92606217 104.91168213 97.04867554 C107.77886963 99.26742554 107.77886963 99.26742554 109.30133057 100.69320679 C112.30679831 103.497604 112.30679831 103.497604 116.18902588 104.44711304 C120.04372375 102.69127781 123.00858188 100.12900407 126.21636963 97.39242554 C127.64913787 96.19872566 129.08274659 95.00603396 130.51715088 93.81430054 C131.59150391 92.91614624 131.59150391 92.91614624 132.68756104 91.99984741 C135.71614211 89.49099715 138.80317935 87.06118464 141.90386963 84.64242554 C142.47436035 84.19576538 143.04485107 83.74910522 143.63262939 83.28890991 C145.91610413 81.50170216 148.20205305 79.71767208 150.487854 77.93344116 C157.30502333 72.6087422 164.07553223 67.23500606 170.77886963 61.76742554 C177.47180404 56.30833021 184.23204291 50.94356071 191.03912354 45.6277771 C194.64955601 42.80468844 198.24921102 39.96783137 201.85015869 37.13265991 C205.97387432 33.88939416 210.12532318 30.68412084 214.30230713 27.50961304 C214.78957275 27.09969116 215.27683838 26.68976929 215.77886963 26.26742554 C215.77886963 25.93742554 215.77886963 25.60742554 215.77886963 25.26742554 C149.77886963 25.26742554 83.77886963 25.26742554 15.77886963 25.26742554 Z M-9.22113037 38.26742554 C-9.2911583 57.25162415 -9.34408801 76.23579663 -9.37656689 95.22009754 C-9.39204708 104.0345014 -9.41315853 112.84882509 -9.44744873 121.66317749 C-9.47731591 129.34423506 -9.49669699 137.02523458 -9.50339586 144.7063486 C-9.50731269 148.77484902 -9.5165415 152.84318335 -9.53832054 156.91163063 C-9.55864345 160.7389797 -9.56497275 164.56609384 -9.56045341 168.39349174 C-9.56128051 169.80000713 -9.56727126 171.20653015 -9.5787468 172.61299896 C-9.59362339 174.529921 -9.5883077 176.44696835 -9.58189392 178.36393738 C-9.5846593 179.4378262 -9.58742468 180.51171503 -9.59027386 181.61814594 C-9.15886738 184.71427633 -8.63697524 185.3793751 -6.22113037 187.26742554 C-4.2496737 187.71445201 -4.2496737 187.71445201 -2.04972839 187.64494896 C-1.19565682 187.6527722 -0.34158525 187.66059544 0.53836727 187.66865575 C1.47697377 187.66196359 2.41558027 187.65527142 3.38262939 187.64837646 C4.87787942 187.65539642 4.87787942 187.65539642 6.40333652 187.6625582 C9.75911646 187.67456868 13.11449258 187.66502723 16.47027588 187.65560913 C18.86976358 187.65967214 21.26924942 187.66501248 23.66873169 187.67153931 C29.5187914 187.68382545 35.3687454 187.68199033 41.21880221 187.67330138 C45.97224294 187.66653283 50.7256513 187.66560452 55.47909546 187.66887283 C56.49296872 187.66956238 56.49296872 187.66956238 57.52732426 187.67026586 C58.90033047 187.67122501 60.27333668 187.67219765 61.64634287 187.67318363 C74.52830568 187.6817432 87.4102045 187.67189454 100.29215682 187.65578254 C111.35123637 187.64237882 122.41022147 187.64470676 133.46929932 187.65853882 C146.30440674 187.67458466 159.13945804 187.68091917 171.97457409 187.67170203 C173.34259732 187.67074636 174.71062055 187.66980324 176.0786438 187.66887283 C176.7517796 187.66841001 177.42491541 187.66794718 178.11844927 187.66747033 C182.86750321 187.66487744 187.61652163 187.66925785 192.36557007 187.67631149 C198.7545891 187.68559213 205.14347141 187.67900743 211.53247452 187.66162872 C213.88232246 187.65764977 216.23218538 187.65882182 218.58202744 187.66541672 C221.77992746 187.67356664 224.97724721 187.66338991 228.17510986 187.64837646 C229.58301961 187.65841471 229.58301961 187.65841471 231.01937199 187.66865575 C231.87344356 187.66083251 232.72751513 187.65300927 233.60746765 187.64494896 C234.34591636 187.6444619 235.08436506 187.64397485 235.845191 187.64347303 C238.34877748 187.15659408 239.24021556 186.26879508 240.77886963 184.26742554 C241.22401038 181.52677643 241.22401038 181.52677643 241.13963318 178.36393738 C241.14375717 177.13134689 241.14788116 175.89875641 241.15213013 174.6288147 C241.14151272 173.26070949 241.13060829 171.89260648 241.1194458 170.52450562 C241.1185997 169.08565794 241.11907435 167.64680896 241.12077332 166.20796204 C241.12163535 162.29906034 241.10397607 158.39043387 241.08305144 154.48159623 C241.06431927 150.39766214 241.06253694 146.31372201 241.05897522 142.22975159 C241.04964456 134.49494327 241.02501702 126.76026191 240.99492675 119.02550954 C240.96141446 110.22030497 240.94490472 101.41509439 240.92984045 92.60984194 C240.89846832 74.49563112 240.84568803 56.38153853 240.77886963 38.26742554 C239.51437412 39.21353802 238.25019445 40.16007263 236.98614502 41.10678101 C236.28212051 41.63383636 235.57809601 42.16089172 234.85273743 42.70391846 C231.94447001 44.89648671 229.07616218 47.13719721 226.21636963 49.39242554 C225.62340088 49.85906616 225.03043213 50.32570679 224.41949463 50.80648804 C219.38644251 54.77384149 214.38271096 58.77739462 209.3838501 62.78768921 C205.22445623 66.12132896 201.04077151 69.42188696 196.84136963 72.70492554 C191.74978406 76.68672319 186.72194728 80.74063525 181.71636963 84.82992554 C175.93026163 89.55585676 170.06400138 94.14410727 164.12261963 98.67367554 C160.27999182 101.62954309 156.53156149 104.69874159 152.77886963 107.76742554 C146.86072476 112.60171796 140.90330587 117.36453289 134.80230713 121.96664429 C132.79761237 123.49218074 130.82253626 125.0574961 128.88043213 126.66195679 C123.89813845 130.64639613 119.87098385 133.65867784 113.28668213 133.02914429 C108.59871861 131.60523013 105.11039986 128.7341257 101.39361572 125.6199646 C99.6190084 124.13352303 97.82042517 122.67987856 96.01715088 121.22836304 C93.27734734 119.01820807 90.5481819 116.79580649 87.82574463 114.56430054 C84.15783471 111.56518331 80.44949464 108.6222759 76.71636963 105.70492554 C71.2399317 101.42385618 65.80370348 97.09545825 60.38189697 92.74545288 C56.2230243 89.41254716 52.0400903 86.11243155 47.84136963 82.82992554 C42.74978406 78.84812788 37.72194728 74.79421583 32.71636963 70.70492554 C26.94093511 65.98771211 21.08756118 61.40554198 15.15386963 56.88851929 C10.42747842 53.25403833 5.83530953 49.44924123 1.2456665 45.64437866 C0.60693604 45.11908569 -0.03179443 44.59379272 -0.68988037 44.05258179 C-1.53196045 43.35467529 -1.53196045 43.35467529 -2.39105225 42.64266968 C-4.57129565 41.00428772 -6.87642545 39.65722079 -9.22113037 38.26742554 Z " fill="#e587a8" transform="translate(140.22113037109375,149.73257446289063)"/>
</svg>
