<?xml version="1.0" encoding="UTF-8"?>
<svg version="1.1" xmlns="http://www.w3.org/2000/svg" width="512" height="512">
<path d="M0 0 C1.05848145 0.00054382 2.11696289 0.00108765 3.20751953 0.00164795 C19.67667594 0.04050203 35.4882418 0.81684482 51.625 4.375 C53.16800781 4.70443604 53.16800781 4.70443604 54.7421875 5.04052734 C95.99098744 14.03505733 133.71628892 33.62139171 164.625 62.375 C165.9959163 63.56721213 167.37076624 64.75491999 168.75 65.9375 C176.5570777 72.77456003 183.15466839 80.27282109 189.625 88.375 C190.28371094 89.16648437 190.94242187 89.95796875 191.62109375 90.7734375 C216.57061097 120.99397949 232.27008121 158.11801933 239.625 196.375 C239.78871094 197.16261719 239.95242188 197.95023438 240.12109375 198.76171875 C250.28276539 248.89823088 240.67824494 305.57078573 216.69775391 350.36962891 C215.96043134 351.74795562 215.23137472 353.13072608 214.50927734 354.51708984 C198.56219582 385.10876167 174.69808851 413.24005424 146.625 433.375 C145.03171875 434.53322266 145.03171875 434.53322266 143.40625 435.71484375 C114.26008075 456.40720906 82.11543766 469.51459902 47.125 476.6875 C46.05282227 476.90841309 46.05282227 476.90841309 44.95898438 477.13378906 C29.64973576 480.06520124 14.4874412 480.74812647 -1.0625 480.6875 C-2.0336676 480.68567719 -3.00483521 480.68385437 -4.00543213 480.68197632 C-18.00275226 480.63772935 -31.63041671 480.24136783 -45.375 477.375 C-46.25591309 477.20339355 -47.13682617 477.03178711 -48.04443359 476.85498047 C-90.72835457 468.46514952 -133.28794789 448.40108088 -163.86108398 416.87573242 C-165.46855618 415.22151925 -165.46855618 415.22151925 -167.875 413.4375 C-171.49186865 410.45358337 -174.35049043 406.94631356 -177.375 403.375 C-178.21417969 402.41207031 -179.05335938 401.44914062 -179.91796875 400.45703125 C-190.475772 388.2849716 -199.38015091 375.35311472 -207.375 361.375 C-207.71241211 360.79733887 -208.04982422 360.21967773 -208.39746094 359.62451172 C-222.51420706 335.33682217 -231.21133014 307.0619721 -235.375 279.375 C-235.63990234 277.6902356 -235.63990234 277.6902356 -235.91015625 275.97143555 C-237.57082893 264.33857169 -237.77266024 252.80062428 -237.75 241.0625 C-237.74978851 240.04987091 -237.74957703 239.03724182 -237.74935913 237.993927 C-237.71563478 221.78306401 -236.7470898 206.27674474 -233.375 190.375 C-233.10212158 189.00529053 -233.10212158 189.00529053 -232.82373047 187.60791016 C-225.3565358 150.52551446 -208.71079105 117.07682845 -185.9375 87.125 C-185.51210937 86.56329102 -185.08671875 86.00158203 -184.6484375 85.42285156 C-181.61673846 81.49586923 -181.61673846 81.49586923 -179.375 80.375 C-172.3228673 79.80627962 -172.3228673 79.80627962 -168.875 81.875 C-166.77489241 85.37517932 -166.60635418 88.44941599 -167.375 92.375 C-169.08978021 95.59021289 -171.32826767 98.30682481 -173.625 101.125 C-204.43831139 140.98492417 -219.86218501 189.55684068 -219.75 239.75 C-219.74945618 240.66986694 -219.74891235 241.58973389 -219.74835205 242.53747559 C-219.70701308 257.80114655 -218.76759417 272.43880724 -215.375 287.375 C-215.16069336 288.32133301 -214.94638672 289.26766602 -214.72558594 290.24267578 C-210.11196286 309.87575741 -202.94782885 328.637671 -193.375 346.375 C-192.76140625 347.53 -192.1478125 348.685 -191.515625 349.875 C-176.84246902 376.55346542 -156.00964567 400.47605002 -131.375 418.375 C-130.33085937 419.14070313 -129.28671875 419.90640625 -128.2109375 420.6953125 C-100.27184903 441.45606534 -100.27184903 441.45606534 -68.375 449.375 C-65.53480981 447.20033721 -64.49071991 445.9966581 -63.82910156 442.44238281 C-63.8081543 441.33217773 -63.78720703 440.22197266 -63.765625 439.078125 C-63.73339844 437.87285156 -63.70117188 436.66757812 -63.66796875 435.42578125 C-63.65378906 434.17152344 -63.63960937 432.91726563 -63.625 431.625 C-63.59535156 430.35527344 -63.56570312 429.08554687 -63.53515625 427.77734375 C-63.46446049 424.64316515 -63.41175988 421.50973044 -63.375 418.375 C-63.94001221 418.53508545 -64.50502441 418.6951709 -65.0871582 418.86010742 C-81.90422245 422.64488904 -101.72312275 418.95882154 -116.44140625 410.359375 C-121.20208852 407.13909991 -125.38942085 403.50890976 -129.375 399.375 C-129.92067627 398.82416748 -130.46635254 398.27333496 -131.02856445 397.70581055 C-136.04212437 392.37596351 -138.87914148 386.71583116 -141.8125 380.0625 C-147.48570449 367.73583759 -153.28893608 357.97196978 -164.4140625 349.89453125 C-169.28341347 346.34738232 -173.61905812 342.88688376 -176.375 337.375 C-176.71944547 332.12220662 -176.95241751 328.54865376 -173.375 324.375 C-165.68993747 319.79666488 -157.8506835 319.27322611 -149.15234375 321.0234375 C-132.72445815 325.60523158 -122.63337148 335.58640399 -113.375 349.375 C-107.27921648 358.25468466 -100.30066903 366.01269318 -89.375 368.375 C-83.69249847 368.97961246 -78.06271461 368.80783777 -72.375 368.375 C-71.32699219 368.30023438 -70.27898437 368.22546875 -69.19921875 368.1484375 C-66.30695074 367.6428262 -64.66996977 367.2185782 -62.375 365.375 C-60.8093516 362.11431076 -59.89565082 359.02826037 -59.09375 355.50390625 C-58.47172261 352.79605875 -57.73981125 350.76930249 -56.375 348.375 C-57.29796875 348.16746094 -58.2209375 347.95992188 -59.171875 347.74609375 C-90.13251163 340.53900896 -118.70510788 328.02395082 -136.26367188 300.20507812 C-153.87982406 271.19570273 -158.76138689 232.86975787 -151.44140625 199.875 C-148.44167811 187.93979607 -143.12584676 175.28388298 -134.6875 166.1875 C-132.75791253 163.76097768 -132.36289917 162.77893736 -132.45703125 159.63671875 C-132.8409439 157.33048087 -133.25977778 155.02992838 -133.703125 152.734375 C-136.72833248 135.51522105 -135.73362003 111.74523359 -126.375 96.375 C-122.12620124 92.46682223 -117.95410502 92.39722751 -112.375 92.375 C-94.12345963 93.22658511 -75.31008203 101.6370929 -60.29760742 111.77832031 C-56.29866708 114.56027833 -56.29866708 114.56027833 -51.63671875 115.53125 C-50.78722656 115.3146875 -49.93773437 115.098125 -49.0625 114.875 C-47.53882813 114.53662109 -47.53882813 114.53662109 -45.984375 114.19140625 C-44.79328125 113.92199219 -43.6021875 113.65257812 -42.375 113.375 C-39.19439232 112.80923228 -36.00429726 112.31065813 -32.8125 111.8125 C-32.04574951 111.68617187 -31.27899902 111.55984375 -30.48901367 111.4296875 C-2.95039856 106.99691243 26.91291027 107.92161636 53.953125 114.921875 C59.86994414 115.92531216 63.65594062 113.34583695 68.5 110.25 C84.97308254 100.10462157 106.25360212 89.41975332 126.1875 92.9375 C130.34512639 94.67614376 131.94638877 96.33725948 133.625 100.375 C137.92235724 112.18477433 139.98038078 123.64414752 139.875 136.1875 C139.87693359 137.23703857 139.87886719 138.28657715 139.88085938 139.36791992 C139.84123527 145.2021186 139.35937458 150.49426215 138.125 156.1875 C137.48613613 159.93070238 137.25988866 161.65729542 138.9921875 165.0625 C140.3669955 166.85991435 141.79223759 168.61954423 143.2578125 170.34375 C156.08462994 186.76884956 158.85957261 207.99983715 158.875 228.125 C158.87567474 228.91122742 158.87634949 229.69745483 158.87704468 230.50750732 C158.86086059 242.36484682 158.44490186 253.80396571 155.625 265.375 C155.45871094 266.08672363 155.29242188 266.79844727 155.12109375 267.53173828 C149.03381114 292.82214299 134.26726516 315.83297927 111.9296875 329.7265625 C96.39229749 339.00310548 80.21083156 343.55310837 62.625 347.375 C62.625 351.75516097 64.31673863 355.57555393 65.75976562 359.66210938 C67.998357 366.14429137 68.74837357 371.94133064 68.7668457 378.78564453 C68.77205734 379.85996735 68.77205734 379.85996735 68.77737427 380.95599365 C68.78468979 382.50119385 68.7900574 384.04640428 68.79366493 385.59161758 C68.80087028 388.03804164 68.81656369 390.48426973 68.83500671 392.93063354 C68.88730865 399.8826034 68.93549848 406.83445834 68.95092773 413.78662109 C68.96100094 418.04720025 68.99029629 422.30727407 69.03224754 426.56765366 C69.04456002 428.18872128 69.04967834 429.8098602 69.04744911 431.43097305 C69.0450995 433.69558162 69.0672295 435.95873284 69.0949707 438.22314453 C69.10377007 440.15457809 69.10377007 440.15457809 69.11274719 442.12503052 C69.37336928 445.44475834 69.37336928 445.44475834 71.48503113 447.82614136 C73.55887958 449.65626899 73.55887958 449.65626899 76.39453125 449.30859375 C80.13309161 448.22816337 83.72601252 446.93660047 87.3125 445.4375 C88.41573608 444.97670044 88.41573608 444.97670044 89.54125977 444.5065918 C116.32676044 433.05610762 139.64764262 416.42646022 160.625 396.375 C161.30175781 395.73949219 161.97851562 395.10398437 162.67578125 394.44921875 C167.81137673 389.50251874 172.19468821 383.94932323 176.625 378.375 C177.800625 376.94220703 177.800625 376.94220703 179 375.48046875 C206.34845441 341.33872839 224.57446692 295.44683531 224.828125 251.484375 C224.83513931 250.66582535 224.84215363 249.8472757 224.84938049 249.00392151 C224.86678269 246.37755768 224.87323262 243.75141937 224.875 241.125 C224.87567474 240.22727875 224.87634949 239.3295575 224.87704468 238.40463257 C224.86121857 225.1635019 224.42254516 212.36106817 221.625 199.375 C221.45339355 198.53098633 221.28178711 197.68697266 221.10498047 196.81738281 C218.38574716 183.61245537 214.48378186 170.9440496 209.625 158.375 C209.22740479 157.34197754 209.22740479 157.34197754 208.82177734 156.28808594 C199.71467001 133.09493861 185.7205166 111.45029917 168.625 93.375 C167.45251186 92.02587064 166.28561821 90.6718542 165.125 89.3125 C150.11165043 72.16422457 131.41693922 58.51900243 111.625 47.375 C110.92455566 46.9742627 110.22411133 46.57352539 109.50244141 46.16064453 C79.84695757 29.31706633 44.49687915 18.45553679 10.21875 18.13671875 C9.34450378 18.1269249 8.47025757 18.11713104 7.56951904 18.10704041 C-11.45820695 17.93774821 -29.7453358 18.07278247 -48.375 22.375 C-49.31537109 22.57867187 -50.25574219 22.78234375 -51.22460938 22.9921875 C-71.1369007 27.36021891 -90.72522741 34.36685482 -108.19140625 44.9765625 C-112.31044934 46.78590904 -114.90418716 46.73787555 -119.375 46.375 C-121.875 44.875 -121.875 44.875 -123.375 42.375 C-124.14903846 36.95673077 -124.14903846 36.95673077 -123.375 34.375 C-119.93563627 30.23490609 -116.04305138 27.84462168 -111.25 25.5625 C-110.55551758 25.22557129 -109.86103516 24.88864258 -109.14550781 24.54150391 C-90.54654061 15.63826994 -71.81459058 9.12958659 -51.6875 4.625 C-50.81061523 4.42624268 -49.93373047 4.22748535 -49.03027344 4.02270508 C-32.75186772 0.54618361 -16.59157014 -0.03212653 0 0 Z M-113.375 109.375 C-118.20960869 124.43998602 -120.20019417 141.47465797 -115.03125 156.7421875 C-114.13480227 160.33865042 -113.76339439 163.72074695 -114.375 167.375 C-116.28125 170.4375 -116.28125 170.4375 -118.875 173.375 C-135.80561373 193.78529246 -138.54287417 217.74601895 -136.4765625 243.46606445 C-134.10975846 268.48166782 -125.68584894 293.00137588 -105.8359375 309.54296875 C-86.51334575 323.92756483 -63.69669382 330.45025435 -39.94921875 332.953125 C-37.35863949 333.37768124 -35.58804241 333.97728901 -33.375 335.375 C-31.73777728 338.64944544 -31.91166245 340.72621676 -32.375 344.375 C-33.94902256 346.7879247 -35.72371132 348.93107275 -37.56640625 351.14453125 C-42.83212758 357.63854179 -44.47847092 365.08384336 -46.34765625 373.08203125 C-47.77543139 377.65851202 -47.77543139 377.65851202 -50.375 379.375 C-52.83769577 380.35441694 -55.22893157 381.21155775 -57.75 382 C-58.41 382.2165625 -59.07 382.433125 -59.75 382.65625 C-75.19263461 387.6397297 -92.72480421 387.26256543 -107.2890625 379.90234375 C-116.47715393 374.54895164 -122.6668674 367.16179432 -128.375 358.3125 C-132.9847921 351.18158408 -138.09624734 344.18774609 -146.375 341.375 C-145.529375 342.32375 -144.68375 343.2725 -143.8125 344.25 C-135.67861996 353.81590117 -130.05853381 364.27508271 -124.8828125 375.65625 C-119.51600064 387.14412836 -111.74094564 394.51399825 -99.94921875 399.375 C-92.78825187 401.8783296 -85.91626977 402.56705299 -78.375 402.5625 C-77.54210449 402.56459473 -76.70920898 402.56668945 -75.85107422 402.56884766 C-69.48830811 402.52370435 -63.51043399 401.83757868 -57.2578125 400.6171875 C-53.93916187 400.33838487 -52.245774 400.70454962 -49.375 402.375 C-47.69295356 405.11676086 -47.11997097 407.2225443 -47.08447266 410.41821289 C-47.07171295 411.20325699 -47.05895325 411.98830109 -47.04580688 412.7971344 C-47.04358124 413.63880661 -47.04135559 414.48047882 -47.0390625 415.34765625 C-47.0290773 416.66509071 -47.0290773 416.66509071 -47.01889038 418.00914001 C-47.00877162 419.86927197 -47.00407312 421.72944016 -47.00439453 423.58959961 C-47.00005252 426.40346208 -46.96381264 429.21571505 -46.92578125 432.02929688 C-46.86857381 441.45438021 -46.94161568 449.78327702 -51.375 458.375 C-48.23050776 459.02747647 -45.08419244 459.67072575 -41.9375 460.3125 C-41.05900391 460.49490234 -40.18050781 460.67730469 -39.27539062 460.86523438 C-9.580779 466.89181607 25.50444163 466.34601072 54.625 457.375 C54.955 456.715 55.285 456.055 55.625 455.375 C54.92600586 453.84504395 54.92600586 453.84504395 54.21289062 452.28417969 C51.79973737 446.15861499 52.20103867 439.67223341 52.21430969 433.1914444 C52.21883198 430.78448988 52.20466279 428.37825372 52.18591309 425.97137451 C52.14930554 420.85592771 52.13546151 415.74055839 52.125 410.625 C52.11285546 404.70432521 52.09097699 398.7840042 52.04499817 392.86348724 C52.03159029 390.51278629 52.03556931 388.16255168 52.04040527 385.81182861 C51.99223853 372.76261239 50.02846494 361.38765411 42.625 350.375 C41.67625 349.50875 40.7275 348.6425 39.75 347.75 C36.95410309 344.62517404 37.0655387 342.53067674 37.05859375 338.4609375 C37.84863969 335.551389 39.07818698 334.94370073 41.625 333.375 C44.40795898 332.68652344 44.40795898 332.68652344 47.62109375 332.234375 C48.80952881 332.05479248 49.99796387 331.87520996 51.22241211 331.69018555 C52.48964111 331.50367432 53.75687012 331.31716309 55.0625 331.125 C81.49686358 326.8740752 106.17272904 318.33096369 123.4375 296.75 C136.92598793 277.47012459 141.79283053 254.87193195 141.92016602 231.62670898 C141.93159522 230.18324917 141.95190056 228.73982852 141.98168945 227.29663086 C142.26404126 213.55603548 140.47887711 200.29194938 133.875 188 C133.53645996 187.34427002 133.19791992 186.68854004 132.84912109 186.01293945 C129.76693114 180.23968959 125.90647882 175.30975611 121.625 170.375 C119.10552437 166.59578655 119.13177 163.74973561 119.625 159.375 C120.10305361 157.63963776 120.60551413 155.91091283 121.125 154.1875 C125.058198 139.28274968 122.89658214 123.92507666 118.625 109.375 C99.91400101 111.39592727 81.20171502 120.93999703 66.3125 132.2578125 C59.89576425 134.92523463 51.74749882 131.85030229 45.1875 130.4375 C14.87924386 124.24825862 -17.0069478 124.07429951 -47.02612305 132.10449219 C-56.05552248 134.5004999 -56.05552248 134.5004999 -60.44238281 132.37182617 C-62.90209294 130.93560028 -65.29491714 129.42039207 -67.6875 127.875 C-82.08635908 118.91114725 -96.36046673 111.35675571 -113.375 109.375 Z " fill="#68e19a" transform="translate(253.375,15.625)"/>
<path d="M0 0 C2.375 1.625 2.375 1.625 4 4 C4.59172793 8.06812955 4.37276489 10.27000208 2.5 13.9375 C-0.55589307 16.45861178 -2.23668182 16.63134586 -6.09765625 16.34375 C-8.95159775 15.82804804 -10.19219609 15.31398901 -12 13 C-12.89988447 10.28270181 -13.24495376 7.85593819 -13 5 C-9.59702063 -0.71214394 -6.3127196 -1.67480316 0 0 Z " fill="#68e19a" transform="translate(117,65)"/>
</svg>
