<?xml version="1.0" encoding="UTF-8"?>
<!DOCTYPE svg PUBLIC "-//W3C//DTD SVG 1.1//EN" "http://www.w3.org/Graphics/SVG/1.1/DTD/svg11.dtd">
<svg xmlns="http://www.w3.org/2000/svg" version="1.1" width="256px" height="256px" style="shape-rendering:geometricPrecision; text-rendering:geometricPrecision; image-rendering:optimizeQuality; fill-rule:evenodd; clip-rule:evenodd" xmlns:xlink="http://www.w3.org/1999/xlink">
<g><path style="opacity:0.987" fill="#3559E0" d="M 103.5,21.5 C 109.929,20.6977 115.929,21.8644 121.5,25C 125.667,29.1667 129.833,33.3333 134,37.5C 138.667,45.5 138.667,53.5 134,61.5C 111.986,83.3471 90.1528,105.347 68.5,127.5C 90.1528,149.653 111.986,171.653 134,193.5C 138.667,201.5 138.667,209.5 134,217.5C 128.711,223.796 122.544,228.962 115.5,233C 107.61,234.769 100.61,233.102 94.5,228C 65.6667,199.167 36.8333,170.333 8,141.5C 0.75725,132.185 0.75725,122.852 8,113.5C 36.8333,84.6667 65.6667,55.8333 94.5,27C 97.2632,24.6258 100.263,22.7925 103.5,21.5 Z"/></g>
<g><path style="opacity:0.912" fill="#3559E0" d="M 217.5,21.5 C 223.402,20.962 229.068,21.7953 234.5,24C 239.333,28.8333 244.167,33.6667 249,38.5C 253.743,46.7084 253.41,54.7084 248,62.5C 226.319,84.0138 204.819,105.68 183.5,127.5C 205.848,150.014 228.015,172.681 250,195.5C 253.452,202.672 253.119,209.672 249,216.5C 244.167,221.333 239.333,226.167 234.5,231C 226.645,234.595 218.978,234.261 211.5,230C 181.333,199.833 151.167,169.667 121,139.5C 116.333,131.5 116.333,123.5 121,115.5C 151.167,85.3333 181.333,55.1667 211.5,25C 213.727,24.059 215.727,22.8923 217.5,21.5 Z M 222.5,29.5 C 229.756,31.2289 235.589,35.2289 240,41.5C 244.179,46.2397 244.512,51.2397 241,56.5C 217.29,79.7095 194.123,103.376 171.5,127.5C 194.123,151.624 217.29,175.29 241,198.5C 243.753,202.333 244.086,206.333 242,210.5C 237.422,217.589 231.256,222.589 223.5,225.5C 221.459,224.764 219.459,223.931 217.5,223C 187.667,193.167 157.833,163.333 128,133.5C 126,129.5 126,125.5 128,121.5C 157.833,91.6667 187.667,61.8333 217.5,32C 219.315,31.2432 220.981,30.4098 222.5,29.5 Z"/></g>
</svg>
