<?xml version="1.0" encoding="UTF-8"?>
<svg version="1.1" xmlns="http://www.w3.org/2000/svg" width="512" height="512">
<path d="M0 0 C1.01790619 0.00215515 2.03581238 0.0043103 3.08456421 0.00653076 C17.69363523 0.05620146 32.02575853 0.30709809 46.375 3.3125 C47.34985352 3.51117676 48.32470703 3.70985352 49.32910156 3.91455078 C88.37782454 12.08284366 124.83813271 27.70153311 156.375 52.3125 C157.27089844 52.99699219 158.16679687 53.68148437 159.08984375 54.38671875 C174.64561709 66.50203669 189.29582193 80.73146847 201.375 96.3125 C202.14972656 97.27027344 202.92445313 98.22804688 203.72265625 99.21484375 C238.26056965 142.61986011 256.81394766 197.76289597 256.69067383 253.03979492 C256.6875221 255.97938487 256.71104926 258.9179558 256.73632812 261.85742188 C256.78098737 275.23056192 255.57551542 288.12666711 253.375 301.3125 C253.09281616 303.01805054 253.09281616 303.01805054 252.80493164 304.75805664 C245.77946967 343.86954746 228.79665906 381.05202178 204.375 412.3125 C203.61574219 413.28445313 202.85648437 414.25640625 202.07421875 415.2578125 C189.73986402 430.63741644 175.93895499 445.19015196 160.375 457.3125 C159.43914062 458.07691406 158.50328125 458.84132813 157.5390625 459.62890625 C125.58628299 485.2157721 86.41988322 501.72551276 46.375 509.3125 C45.56562988 509.47621094 44.75625977 509.63992188 43.92236328 509.80859375 C13.88110013 515.67977137 -20.7615176 514.58512909 -50.625 508.3125 C-52.14794678 507.99901611 -52.14794678 507.99901611 -53.70166016 507.67919922 C-90.84546555 499.78695344 -125.70945445 483.68345578 -155.625 460.3125 C-156.59695312 459.55324219 -157.56890625 458.79398437 -158.5703125 458.01171875 C-173.94991644 445.67736402 -188.50265196 431.87645499 -200.625 416.3125 C-201.77162109 414.90871094 -201.77162109 414.90871094 -202.94140625 413.4765625 C-228.5282721 381.52378299 -245.03801276 342.35738322 -252.625 302.3125 C-252.78871094 301.50312988 -252.95242187 300.69375977 -253.12109375 299.85986328 C-258.59069558 271.87335724 -258.46977511 238.21828161 -252.625 210.3125 C-252.42632324 209.33764648 -252.22764648 208.36279297 -252.02294922 207.35839844 C-241.93598313 159.13741149 -219.89911449 114.53770064 -185.40722656 79.14160156 C-183.63301167 77.32072238 -181.87518486 75.48496071 -180.1171875 73.6484375 C-173.01832106 66.31138736 -165.60682072 59.74213624 -157.41796875 53.64794922 C-155.58092428 52.27967127 -153.75911069 50.89264471 -151.9375 49.50390625 C-143.51077324 43.13790222 -134.81596417 37.50688619 -125.625 32.3125 C-124.99464844 31.94946777 -124.36429688 31.58643555 -123.71484375 31.21240234 C-85.96656579 9.60246645 -43.19754839 -0.16448837 0 0 Z M-155.625 96.3125 C-156.12241699 96.78268555 -156.61983398 97.25287109 -157.13232422 97.73730469 C-165.13838763 105.33444934 -172.03249721 113.47194153 -178.625 122.3125 C-179.05022949 122.87163086 -179.47545898 123.43076172 -179.91357422 124.00683594 C-187.16970107 133.56450244 -193.10360829 143.66807576 -198.625 154.3125 C-199.01574707 155.06128418 -199.40649414 155.81006836 -199.80908203 156.58154297 C-215.67172991 187.3682599 -223.08020261 221.12664341 -223 255.625 C-222.99912384 256.54836151 -222.99824768 257.47172302 -222.99734497 258.42306519 C-222.81378459 317.25448491 -199.15704805 371.11475135 -158.625 413.3125 C-157.7690625 414.2096875 -156.913125 415.106875 -156.03125 416.03125 C-150.26417803 421.9443238 -144.1837581 427.29642238 -137.625 432.3125 C-136.98030762 432.8065332 -136.33561523 433.30056641 -135.67138672 433.80957031 C-124.83901324 442.03586549 -113.72845013 449.11374313 -101.625 455.3125 C-100.8820166 455.69889648 -100.1390332 456.08529297 -99.37353516 456.48339844 C-47.31468466 483.31692993 13.98450289 486.84888824 69.49414062 469.26123047 C102.96928428 458.23712808 132.08101384 439.60803934 157.375 415.3125 C158.72078125 414.02859375 158.72078125 414.02859375 160.09375 412.71875 C166.01226517 406.94637101 171.31283335 400.84514578 176.375 394.3125 C176.79894043 393.77028809 177.22288086 393.22807617 177.65966797 392.66943359 C208.01011115 353.60307944 223.86836364 305.74996348 223.75 256.4375 C223.74912384 255.5403125 223.74824768 254.643125 223.74734497 253.71875 C223.55922394 195.06143939 199.70451388 141.38198287 159.375 99.3125 C158.48039062 98.36503906 157.58578125 97.41757813 156.6640625 96.44140625 C149.75998731 89.30449568 142.30488392 83.24414885 134.375 77.3125 C133.81441895 76.88582031 133.25383789 76.45914063 132.67626953 76.01953125 C123.12016384 68.76526124 113.01727007 62.83277431 102.375 57.3125 C101.62621582 56.92175293 100.87743164 56.53100586 100.10595703 56.12841797 C16.70694409 13.15764006 -86.89826482 30.68228687 -155.625 96.3125 Z " fill="white" transform="translate(255.625,-0.3125)"/>
<path d="M0 0 C0.83931564 -0.0071553 1.67863129 -0.01431061 2.54338074 -0.02168274 C3.46639984 -0.02437164 4.38941895 -0.02706055 5.34040833 -0.02983093 C6.31147018 -0.03640213 7.28253204 -0.04297333 8.28302002 -0.04974365 C11.5115415 -0.06952244 14.74001612 -0.08115596 17.96858215 -0.09111023 C19.07334711 -0.09518576 20.17811207 -0.09926128 21.31635475 -0.10346031 C27.1756077 -0.12435102 33.03483709 -0.13863378 38.89411926 -0.147995 C44.9170223 -0.15900209 50.93955 -0.1933271 56.96232128 -0.23316669 C61.61497631 -0.25946836 66.26754429 -0.26769933 70.92026711 -0.27127647 C73.13797319 -0.27611581 75.35567609 -0.28765299 77.57330894 -0.30631447 C93.20308997 -0.42955124 107.20336146 0.42319693 121.3006134 7.89717102 C121.96448059 8.24006165 122.62834778 8.58295227 123.31233215 8.93623352 C129.10694042 12.02518812 134.14054184 15.71159921 138.9881134 20.14717102 C139.67002747 20.73756165 140.35194153 21.32795227 141.05451965 21.93623352 C154.60711811 34.40144149 163.63945245 53.9274605 164.42170715 72.26045227 C164.44537992 74.32672333 164.44623938 76.3933673 164.4256134 78.45967102 C164.41658997 79.55271545 164.40756653 80.64575989 164.39826965 81.77192688 C164.00352933 100.28223261 157.10471339 117.15538294 144.9881134 131.14717102 C144.35131653 131.97217102 143.71451965 132.79717102 143.0584259 133.64717102 C130.7293168 148.53515183 110.78110161 156.29509646 91.9881134 158.14717102 C89.42208136 158.2289921 86.85427396 158.26509253 84.28694153 158.26069641 C83.20254288 158.26091545 83.20254288 158.26091545 82.09623718 158.26113892 C79.73724734 158.2604494 77.37833923 158.25270265 75.0193634 158.24482727 C73.37169945 158.24295967 71.72403495 158.24153738 70.07637024 158.24053955 C65.76263364 158.23674132 61.4489313 158.22693434 57.13520813 158.21583557 C52.7242021 158.20556323 48.31319048 158.20102951 43.9021759 158.19599915 C35.26413944 158.1853094 26.6261307 158.16826572 17.9881134 158.14717102 C17.99699585 158.77055862 18.0058783 159.39394623 18.01502991 160.03622437 C18.10372331 166.54145614 18.16393899 173.04651532 18.20783997 179.55220032 C18.22791911 181.97805258 18.25518816 184.40385665 18.28987122 186.82954407 C18.33855018 190.32225964 18.3611199 193.81433362 18.3787384 197.30732727 C18.39938354 198.38676102 18.42002869 199.46619476 18.44129944 200.57833862 C18.44320752 207.02354926 17.82451072 210.90617427 13.9881134 216.14717102 C10.20726332 219.83349986 7.10682472 220.45078482 1.9881134 220.64717102 C-3.12909654 220.4571756 -6.19258488 219.77550765 -10.0118866 216.14717102 C-14.27647495 210.49947293 -15.16077772 206.38550438 -15.15905762 199.47525024 C-15.16273431 198.68612234 -15.16641099 197.89699443 -15.1701991 197.08395356 C-15.18124122 194.43094724 -15.18508068 191.77798009 -15.18888855 189.12495422 C-15.19515283 187.22618485 -15.2017996 185.3274167 -15.20880127 183.4286499 C-15.22621479 178.26317015 -15.23676413 173.09769965 -15.2450068 167.93219781 C-15.25015653 164.70504295 -15.2562323 161.47789097 -15.26251793 158.25073814 C-15.28157155 148.15400501 -15.29580197 138.05727919 -15.3041299 127.96053153 C-15.31390199 116.3052014 -15.34022015 104.65006121 -15.38063079 92.994798 C-15.41079179 83.98661745 -15.42559879 74.97849134 -15.42891091 65.97026128 C-15.43126151 60.58986342 -15.44022338 55.20966842 -15.46537209 49.82932472 C-15.48865725 44.76579504 -15.49288416 39.70260172 -15.4826107 34.63903236 C-15.48211533 32.78310019 -15.48843608 30.92715144 -15.50216675 29.07126999 C-15.51989997 26.53178213 -15.51277298 23.99349957 -15.49963379 21.45401001 C-15.51060304 20.72451513 -15.52157228 19.99502025 -15.53287393 19.24341947 C-15.46568052 13.84143548 -13.98364847 9.67069123 -11.0118866 5.14717102 C-7.38232618 1.77686492 -4.92473801 0.02879602 0 0 Z M17.9881134 33.14717102 C17.9881134 63.50717102 17.9881134 93.86717102 17.9881134 125.14717102 C35.4368634 125.23998352 35.4368634 125.23998352 53.2381134 125.33467102 C56.88777161 125.36198303 60.53742981 125.38929504 64.29768372 125.41743469 C67.61857184 125.42747857 67.61857184 125.42747857 70.93946838 125.4335022 C72.3989691 125.43805725 73.85845977 125.44849878 75.31788635 125.46389771 C91.79633669 125.62881494 105.84236959 123.12379419 118.3006134 111.52217102 C128.26393297 101.02029364 131.64010177 88.59343033 131.29670715 74.44404602 C130.64018145 62.0763004 124.5165114 52.19135023 115.6756134 43.83467102 C107.14385367 36.64008658 97.40942107 32.80284743 86.21687317 32.92012024 C85.46270331 32.91987917 84.70853346 32.9196381 83.93150997 32.91938972 C81.51405569 32.9208708 79.09691805 32.93604748 76.67951965 32.95185852 C75.17752735 32.95480271 73.67553298 32.95684083 72.17353821 32.95796204 C66.63253178 32.96840585 61.09156941 32.9963284 55.5506134 33.02217102 C43.1549884 33.06342102 30.7593634 33.10467102 17.9881134 33.14717102 Z " fill="white" transform="translate(202.0118865966797,145.8528289794922)"/>
</svg>
